<?xml version="1.0" encoding="UTF-8" standalone="no"?>
<!-- Created with Inkscape (http://www.inkscape.org/) -->

<svg
   xmlns:dc="http://purl.org/dc/elements/1.1/"
   xmlns:cc="http://creativecommons.org/ns#"
   xmlns:rdf="http://www.w3.org/1999/02/22-rdf-syntax-ns#"
   xmlns:svg="http://www.w3.org/2000/svg"
   xmlns="http://www.w3.org/2000/svg"
   xmlns:sodipodi="http://sodipodi.sourceforge.net/DTD/sodipodi-0.dtd"
   xmlns:inkscape="http://www.inkscape.org/namespaces/inkscape"
   width="52.192162mm"
   height="26.01519mm"
   viewBox="0 0 52.192161 26.01519"
   version="1.1"
   id="svg8"
   sodipodi:docname="logo.svg"
   inkscape:version="0.92.1 r"
   inkscape:export-filename="/home/kyra/dev/cuddlyrobot/lunadoc/logo.png"
   inkscape:export-xdpi="299.74026"
   inkscape:export-ydpi="299.74026">
  <defs
     id="defs2" />
  <sodipodi:namedview
     id="base"
     pagecolor="#ffffff"
     bordercolor="#666666"
     borderopacity="1.0"
     inkscape:pageopacity="0.0"
     inkscape:pageshadow="2"
     inkscape:zoom="3.959798"
     inkscape:cx="56.063472"
     inkscape:cy="8.4726124"
     inkscape:document-units="mm"
     inkscape:current-layer="layer1"
     showgrid="false"
     inkscape:window-width="1680"
     inkscape:window-height="1024"
     inkscape:window-x="78"
     inkscape:window-y="3"
     inkscape:window-maximized="0"
     fit-margin-left="0.5"
     fit-margin-top="0.5"
     fit-margin-right="0.5"
     fit-margin-bottom="0.5" />
  <metadata
     id="metadata5">
    <rdf:RDF>
      <cc:Work
         rdf:about="">
        <dc:format>image/svg+xml</dc:format>
        <dc:type
           rdf:resource="http://purl.org/dc/dcmitype/StillImage" />
        <dc:title />
      </cc:Work>
    </rdf:RDF>
  </metadata>
  <g
     inkscape:label="Layer 1"
     inkscape:groupmode="layer"
     id="layer1"
     transform="translate(-70.126184,-125.2471)">
    <path
       style="fill:#00008b;fill-opacity:1;stroke:none;stroke-width:1.88976383;stroke-linejoin:round;stroke-miterlimit:4;stroke-dasharray:none;stroke-opacity:1"
       d="M 51.261719,1.9277344 A 47.477168,47.477168 0 0 0 4.1640625,34.851562 47.477168,47.477168 0 0 0 34.849609,94.570312 47.477168,47.477168 0 0 0 43.376953,96.435547 42.426413,44.699253 0 0 1 25.638672,45.044922 42.426413,44.699253 0 0 1 60.583984,14.431641 L 63.880859,4.1621094 a 47.477168,47.477168 0 0 0 -12.61914,-2.234375 z m 12.625,2.2363281 -3.296875,10.2656255 a 42.426413,44.699253 0 0 1 18.414062,1.722656 L 66.035156,58.710938 79.009766,16.152344 A 42.426413,44.699253 0 0 1 86.107422,19.367188 47.477168,47.477168 0 0 0 63.886719,4.1640625 Z"
       transform="matrix(0.26458333,0,0,0.26458333,70.12597,125.24705)"
       id="path4485"
       inkscape:connector-curvature="0" />
    <text
       xml:space="preserve"
       style="font-style:normal;font-variant:normal;font-weight:normal;font-stretch:normal;font-size:10.58333302px;line-height:1.25;font-family:'Droid Sans';-inkscape-font-specification:'Droid Sans';letter-spacing:0px;word-spacing:0px;fill:#00008b;fill-opacity:1;stroke:none;stroke-width:0.26458332"
       x="84.099716"
       y="144.72284"
       id="text4491"><tspan
         sodipodi:role="line"
         id="tspan4489"
         x="84.099716"
         y="144.72284"
         style="fill:#000000;fill-opacity:1;stroke-width:0.26458332"><tspan
   style="fill:#00008b;fill-opacity:1"
   id="tspan4527">luna</tspan>doc</tspan></text>
  </g>
</svg>
